{
    "asset" : {
        "generator" : "Khronos glTF Blender I/O v0.9.36",
        "version" : "2.0"
    },
    "scene" : 0,
    "scenes" : [
        {
            "name" : "Scene",
            "nodes" : [
                0,
                1,
                2,
                3
            ]
        }
    ],
    "nodes" : [
        {
            "name" : "Light",
            "rotation" : [
                0.3934503495693207,
                0.7893999814987183,
                0.18706707656383514,
                0.43249326944351196
            ],
            "scale" : [
                2.5700273513793945,
                2.5700271129608154,
                2.5700275897979736
            ],
            "translation" : [
                -1.669653296470642,
                25.843547821044922,
                6.515149116516113
            ]
        },
        {
            "name" : "Camera",
            "rotation" : [
                0.483536034822464,
                0.33687159419059753,
                -0.20870360732078552,
                0.7804827094078064
            ],
            "scale" : [
                1.0912538766860962,
                1.0912538766860962,
                1.0912538766860962
            ],
            "translation" : [
                10.35772705078125,
                17.182310104370117,
                15.69163990020752
            ]
        },
        {
            "mesh" : 0,
            "name" : "Cylinder_003",
            "scale" : [
                7.637328147888184,
                1.039056420326233,
                7.637328147888184
            ],
            "translation" : [
                -1.109107494354248,
                6.15673303604126,
                -0.38769006729125977
            ]
        },
        {
            "mesh" : 1,
            "name" : "Text",
            "rotation" : [
                0.648566484451294,
                0,
                0,
                0.7611580491065979
            ],
            "scale" : [
                3.714632987976074,
                14.171296119689941,
                3.728940010070801
            ],
            "translation" : [
                -5.745083332061768,
                24.490474700927734,
                6.547482013702393
            ]
        }
    ],
    "materials" : [
        {
            "doubleSided" : true,
            "name" : "BR_D",
            "pbrMetallicRoughness" : {
                "baseColorFactor" : [
                    0.09896796196699142,
                    0.04532996937632561,
                    0.014292839914560318,
                    1
                ],
                "metallicFactor" : 0,
                "roughnessFactor" : 0.5
            }
        },
        {
            "doubleSided" : true,
            "name" : "White",
            "pbrMetallicRoughness" : {
                "baseColorFactor" : [
                    0.800000011920929,
                    0.800000011920929,
                    0.800000011920929,
                    1
                ],
                "metallicFactor" : 0,
                "roughnessFactor" : 0.5
            }
        },
        {
            "doubleSided" : true,
            "name" : "W",
            "pbrMetallicRoughness" : {
                "baseColorFactor" : [
                    0.800000011920929,
                    0.800000011920929,
                    0.800000011920929,
                    1
                ],
                "metallicFactor" : 0,
                "roughnessFactor" : 0.5
            }
        },
        {
            "doubleSided" : true,
            "name" : "B_001",
            "pbrMetallicRoughness" : {
                "baseColorFactor" : [
                    0.037569161504507065,
                    0.037569161504507065,
                    0.037569161504507065,
                    1
                ],
                "metallicFactor" : 0,
                "roughnessFactor" : 0.5
            }
        },
        {
            "doubleSided" : true,
            "name" : "Flame",
            "pbrMetallicRoughness" : {
                "baseColorFactor" : [
                    0.6399999856948853,
                    0.263832688331604,
                    0,
                    1
                ],
                "metallicFactor" : 0,
                "roughnessFactor" : 0.5
            }
        },
        {
            "doubleSided" : true,
            "name" : "Gold",
            "pbrMetallicRoughness" : {
                "baseColorFactor" : [
                    0.800000011920929,
                    0.4707288146018982,
                    0,
                    1
                ],
                "metallicFactor" : 0,
                "roughnessFactor" : 0.5
            }
        },
        {
            "doubleSided" : true,
            "name" : "Brown",
            "pbrMetallicRoughness" : {
                "baseColorFactor" : [
                    0.30059921741485596,
                    0.11163750290870667,
                    0.029401149600744247,
                    1
                ],
                "metallicFactor" : 0,
                "roughnessFactor" : 0.5
            }
        },
        {
            "doubleSided" : true,
            "name" : "R",
            "pbrMetallicRoughness" : {
                "baseColorFactor" : [
                    0.6399999856948853,
                    0.05841720849275589,
                    0.19842399656772614,
                    1
                ],
                "metallicFactor" : 0,
                "roughnessFactor" : 0.5
            }
        },
        {
            "doubleSided" : true,
            "name" : "B",
            "pbrMetallicRoughness" : {
                "baseColorFactor" : [
                    0.24839530885219574,
                    0.5661829710006714,
                    0.6399999856948853,
                    1
                ],
                "metallicFactor" : 0,
                "roughnessFactor" : 0.5
            }
        },
        {
            "doubleSided" : true,
            "name" : "Material_001",
            "pbrMetallicRoughness" : {
                "baseColorFactor" : [
                    0,
                    0.09681805968284607,
                    0.6399999856948853,
                    1
                ],
                "metallicFactor" : 0,
                "roughnessFactor" : 0.5
            }
        }
    ],
    "meshes" : [
        {
            "name" : "Cylinder.003",
            "primitives" : [
                {
                    "attributes" : {
                        "POSITION" : 0,
                        "NORMAL" : 1,
                        "TEXCOORD_0" : 2
                    },
                    "indices" : 3,
                    "material" : 0
                },
                {
                    "attributes" : {
                        "POSITION" : 4,
                        "NORMAL" : 5,
                        "TEXCOORD_0" : 6
                    },
                    "indices" : 7,
                    "material" : 1
                },
                {
                    "attributes" : {
                        "POSITION" : 8,
                        "NORMAL" : 9,
                        "TEXCOORD_0" : 10
                    },
                    "indices" : 11,
                    "material" : 2
                },
                {
                    "attributes" : {
                        "POSITION" : 12,
                        "NORMAL" : 13,
                        "TEXCOORD_0" : 14
                    },
                    "indices" : 15,
                    "material" : 3
                },
                {
                    "attributes" : {
                        "POSITION" : 16,
                        "NORMAL" : 17,
                        "TEXCOORD_0" : 18
                    },
                    "indices" : 19,
                    "material" : 4
                },
                {
                    "attributes" : {
                        "POSITION" : 20,
                        "NORMAL" : 21,
                        "TEXCOORD_0" : 22
                    },
                    "indices" : 23,
                    "material" : 5
                },
                {
                    "attributes" : {
                        "POSITION" : 24,
                        "NORMAL" : 25,
                        "TEXCOORD_0" : 26
                    },
                    "indices" : 23,
                    "material" : 6
                },
                {
                    "attributes" : {
                        "POSITION" : 27,
                        "NORMAL" : 28,
                        "TEXCOORD_0" : 29
                    },
                    "indices" : 23,
                    "material" : 7
                },
                {
                    "attributes" : {
                        "POSITION" : 30,
                        "NORMAL" : 31,
                        "TEXCOORD_0" : 32
                    },
                    "indices" : 23,
                    "material" : 8
                },
                {
                    "attributes" : {
                        "POSITION" : 33,
                        "NORMAL" : 34,
                        "TEXCOORD_0" : 35
                    },
                    "indices" : 23,
                    "material" : 9
                }
            ]
        },
        {
            "name" : "Text",
            "primitives" : [
                {
                    "attributes" : {
                        "POSITION" : 36,
                        "NORMAL" : 37
                    },
                    "indices" : 38,
                    "material" : 9
                }
            ]
        }
    ],
    "accessors" : [
        {
            "bufferView" : 0,
            "componentType" : 5126,
            "count" : 231,
            "max" : [
                1,
                1,
                1
            ],
            "min" : [
                -1,
                -2.127305030822754,
                -1
            ],
            "type" : "VEC3"
        },
        {
            "bufferView" : 1,
            "componentType" : 5126,
            "count" : 231,
            "type" : "VEC3"
        },
        {
            "bufferView" : 2,
            "componentType" : 5126,
            "count" : 231,
            "type" : "VEC2"
        },
        {
            "bufferView" : 3,
            "componentType" : 5123,
            "count" : 372,
            "type" : "SCALAR"
        },
        {
            "bufferView" : 4,
            "componentType" : 5126,
            "count" : 13794,
            "max" : [
                1.0310620069503784,
                1.4257630109786987,
                1.026134967803955
            ],
            "min" : [
                -1.020885944366455,
                -4.887668132781982,
                -1.026134967803955
            ],
            "type" : "VEC3"
        },
        {
            "bufferView" : 5,
            "componentType" : 5126,
            "count" : 13794,
            "type" : "VEC3"
        },
        {
            "bufferView" : 6,
            "componentType" : 5126,
            "count" : 13794,
            "type" : "VEC2"
        },
        {
            "bufferView" : 7,
            "componentType" : 5123,
            "count" : 48000,
            "type" : "SCALAR"
        },
        {
            "bufferView" : 8,
            "componentType" : 5126,
            "count" : 232,
            "max" : [
                0.06016086786985397,
                5.6786980628967285,
                0.06016086786985397
            ],
            "min" : [
                -0.06016086786985397,
                -1.9402559995651245,
                -0.06016086786985397
            ],
            "type" : "VEC3"
        },
        {
            "bufferView" : 9,
            "componentType" : 5126,
            "count" : 232,
            "type" : "VEC3"
        },
        {
            "bufferView" : 10,
            "componentType" : 5126,
            "count" : 232,
            "type" : "VEC2"
        },
        {
            "bufferView" : 11,
            "componentType" : 5123,
            "count" : 474,
            "type" : "SCALAR"
        },
        {
            "bufferView" : 12,
            "componentType" : 5126,
            "count" : 72,
            "max" : [
                0.007684050593525171,
                5.829955101013184,
                0.007727980148047209
            ],
            "min" : [
                -0.007771908771246672,
                5.6786980628967285,
                -0.007727980148047209
            ],
            "type" : "VEC3"
        },
        {
            "bufferView" : 13,
            "componentType" : 5126,
            "count" : 72,
            "type" : "VEC3"
        },
        {
            "bufferView" : 14,
            "componentType" : 5126,
            "count" : 72,
            "type" : "VEC2"
        },
        {
            "bufferView" : 15,
            "componentType" : 5123,
            "count" : 192,
            "type" : "SCALAR"
        },
        {
            "bufferView" : 16,
            "componentType" : 5126,
            "count" : 284,
            "max" : [
                0.034941788762807846,
                7.292149066925049,
                0.0342559814453125
            ],
            "min" : [
                -0.033854540437459946,
                5.829955101013184,
                -0.03454035148024559
            ],
            "type" : "VEC3"
        },
        {
            "bufferView" : 17,
            "componentType" : 5126,
            "count" : 284,
            "type" : "VEC3"
        },
        {
            "bufferView" : 18,
            "componentType" : 5126,
            "count" : 284,
            "type" : "VEC2"
        },
        {
            "bufferView" : 19,
            "componentType" : 5123,
            "count" : 1242,
            "type" : "SCALAR"
        },
        {
            "bufferView" : 20,
            "componentType" : 5126,
            "count" : 252,
            "max" : [
                1.1087199449539185,
                -4.721662998199463,
                1.1087199449539185
            ],
            "min" : [
                -1.1087199449539185,
                -5.1088128089904785,
                -1.1087199449539185
            ],
            "type" : "VEC3"
        },
        {
            "bufferView" : 21,
            "componentType" : 5126,
            "count" : 252,
            "type" : "VEC3"
        },
        {
            "bufferView" : 22,
            "componentType" : 5126,
            "count" : 252,
            "type" : "VEC2"
        },
        {
            "bufferView" : 23,
            "componentType" : 5123,
            "count" : 372,
            "type" : "SCALAR"
        },
        {
            "bufferView" : 24,
            "componentType" : 5126,
            "count" : 252,
            "max" : [
                0.9604820013046265,
                -0.06217116117477417,
                0.9604820013046265
            ],
            "min" : [
                -0.9604820013046265,
                -1.3132129907608032,
                -0.9604820013046265
            ],
            "type" : "VEC3"
        },
        {
            "bufferView" : 25,
            "componentType" : 5126,
            "count" : 252,
            "type" : "VEC3"
        },
        {
            "bufferView" : 26,
            "componentType" : 5126,
            "count" : 252,
            "type" : "VEC2"
        },
        {
            "bufferView" : 27,
            "componentType" : 5126,
            "count" : 252,
            "max" : [
                0.9604820013046265,
                -1.3155759572982788,
                0.9604820013046265
            ],
            "min" : [
                -0.9604820013046265,
                -2.566617965698242,
                -0.9604820013046265
            ],
            "type" : "VEC3"
        },
        {
            "bufferView" : 28,
            "componentType" : 5126,
            "count" : 252,
            "type" : "VEC3"
        },
        {
            "bufferView" : 29,
            "componentType" : 5126,
            "count" : 252,
            "type" : "VEC2"
        },
        {
            "bufferView" : 30,
            "componentType" : 5126,
            "count" : 252,
            "max" : [
                0.9604820013046265,
                -2.56713604927063,
                0.9604820013046265
            ],
            "min" : [
                -0.9604820013046265,
                -3.8181779384613037,
                -0.9604820013046265
            ],
            "type" : "VEC3"
        },
        {
            "bufferView" : 31,
            "componentType" : 5126,
            "count" : 252,
            "type" : "VEC3"
        },
        {
            "bufferView" : 32,
            "componentType" : 5126,
            "count" : 252,
            "type" : "VEC2"
        },
        {
            "bufferView" : 33,
            "componentType" : 5126,
            "count" : 252,
            "max" : [
                0.9604820013046265,
                -3.817193031311035,
                0.9604820013046265
            ],
            "min" : [
                -0.9604820013046265,
                -5.068234920501709,
                -0.9604820013046265
            ],
            "type" : "VEC3"
        },
        {
            "bufferView" : 34,
            "componentType" : 5126,
            "count" : 252,
            "type" : "VEC3"
        },
        {
            "bufferView" : 35,
            "componentType" : 5126,
            "count" : 252,
            "type" : "VEC2"
        },
        {
            "bufferView" : 36,
            "componentType" : 5126,
            "count" : 8423,
            "max" : [
                3.6640000343322754,
                0.019999999552965164,
                2.2300000190734863
            ],
            "min" : [
                0.35200002789497375,
                -0.019999999552965164,
                -0.6820000410079956
            ],
            "type" : "VEC3"
        },
        {
            "bufferView" : 37,
            "componentType" : 5126,
            "count" : 8423,
            "type" : "VEC3"
        },
        {
            "bufferView" : 38,
            "componentType" : 5123,
            "count" : 21276,
            "type" : "SCALAR"
        }
    ],
    "bufferViews" : [
        {
            "buffer" : 0,
            "byteLength" : 2772,
            "byteOffset" : 0
        },
        {
            "buffer" : 0,
            "byteLength" : 2772,
            "byteOffset" : 2772
        },
        {
            "buffer" : 0,
            "byteLength" : 1848,
            "byteOffset" : 5544
        },
        {
            "buffer" : 0,
            "byteLength" : 744,
            "byteOffset" : 7392
        },
        {
            "buffer" : 0,
            "byteLength" : 165528,
            "byteOffset" : 8136
        },
        {
            "buffer" : 0,
            "byteLength" : 165528,
            "byteOffset" : 173664
        },
        {
            "buffer" : 0,
            "byteLength" : 110352,
            "byteOffset" : 339192
        },
        {
            "buffer" : 0,
            "byteLength" : 96000,
            "byteOffset" : 449544
        },
        {
            "buffer" : 0,
            "byteLength" : 2784,
            "byteOffset" : 545544
        },
        {
            "buffer" : 0,
            "byteLength" : 2784,
            "byteOffset" : 548328
        },
        {
            "buffer" : 0,
            "byteLength" : 1856,
            "byteOffset" : 551112
        },
        {
            "buffer" : 0,
            "byteLength" : 948,
            "byteOffset" : 552968
        },
        {
            "buffer" : 0,
            "byteLength" : 864,
            "byteOffset" : 553916
        },
        {
            "buffer" : 0,
            "byteLength" : 864,
            "byteOffset" : 554780
        },
        {
            "buffer" : 0,
            "byteLength" : 576,
            "byteOffset" : 555644
        },
        {
            "buffer" : 0,
            "byteLength" : 384,
            "byteOffset" : 556220
        },
        {
            "buffer" : 0,
            "byteLength" : 3408,
            "byteOffset" : 556604
        },
        {
            "buffer" : 0,
            "byteLength" : 3408,
            "byteOffset" : 560012
        },
        {
            "buffer" : 0,
            "byteLength" : 2272,
            "byteOffset" : 563420
        },
        {
            "buffer" : 0,
            "byteLength" : 2484,
            "byteOffset" : 565692
        },
        {
            "buffer" : 0,
            "byteLength" : 3024,
            "byteOffset" : 568176
        },
        {
            "buffer" : 0,
            "byteLength" : 3024,
            "byteOffset" : 571200
        },
        {
            "buffer" : 0,
            "byteLength" : 2016,
            "byteOffset" : 574224
        },
        {
            "buffer" : 0,
            "byteLength" : 744,
            "byteOffset" : 576240
        },
        {
            "buffer" : 0,
            "byteLength" : 3024,
            "byteOffset" : 576984
        },
        {
            "buffer" : 0,
            "byteLength" : 3024,
            "byteOffset" : 580008
        },
        {
            "buffer" : 0,
            "byteLength" : 2016,
            "byteOffset" : 583032
        },
        {
            "buffer" : 0,
            "byteLength" : 3024,
            "byteOffset" : 585048
        },
        {
            "buffer" : 0,
            "byteLength" : 3024,
            "byteOffset" : 588072
        },
        {
            "buffer" : 0,
            "byteLength" : 2016,
            "byteOffset" : 591096
        },
        {
            "buffer" : 0,
            "byteLength" : 3024,
            "byteOffset" : 593112
        },
        {
            "buffer" : 0,
            "byteLength" : 3024,
            "byteOffset" : 596136
        },
        {
            "buffer" : 0,
            "byteLength" : 2016,
            "byteOffset" : 599160
        },
        {
            "buffer" : 0,
            "byteLength" : 3024,
            "byteOffset" : 601176
        },
        {
            "buffer" : 0,
            "byteLength" : 3024,
            "byteOffset" : 604200
        },
        {
            "buffer" : 0,
            "byteLength" : 2016,
            "byteOffset" : 607224
        },
        {
            "buffer" : 0,
            "byteLength" : 101076,
            "byteOffset" : 609240
        },
        {
            "buffer" : 0,
            "byteLength" : 101076,
            "byteOffset" : 710316
        },
        {
            "buffer" : 0,
            "byteLength" : 42552,
            "byteOffset" : 811392
        }
    ],
    "buffers" : [
        {
            "byteLength" : 853944,
            "uri" : "scene.bin"
        }
    ]
}
